<svg width="551" height="88" viewBox="0 0 551 88" fill="none" xmlns="http://www.w3.org/2000/svg">
<path d="M6.87975 69.768C4.89575 69.768 3.35975 69.224 2.27175 68.136C1.24775 66.984 0.735751 65.416 0.735751 63.432V6.888C0.735751 4.84 1.24775 3.272 2.27175 2.184C3.35975 1.09599 4.89575 0.551994 6.87975 0.551994C8.86375 0.551994 10.3678 1.09599 11.3918 2.184C12.4798 3.272 13.0238 4.84 13.0238 6.888V29.544H47.8718V6.888C47.8718 4.84 48.3838 3.272 49.4078 2.184C50.4958 1.09599 52.0318 0.551994 54.0158 0.551994C55.9998 0.551994 57.5038 1.09599 58.5278 2.184C59.6158 3.272 60.1598 4.84 60.1598 6.888V63.432C60.1598 65.416 59.6158 66.984 58.5278 68.136C57.5038 69.224 55.9998 69.768 54.0158 69.768C52.0318 69.768 50.4958 69.224 49.4078 68.136C48.3838 66.984 47.8718 65.416 47.8718 63.432V39.816H13.0238V63.432C13.0238 65.416 12.5118 66.984 11.4878 68.136C10.4638 69.224 8.92775 69.768 6.87975 69.768ZM89.2898 69.96C85.8978 69.96 82.8578 69.32 80.1698 68.04C77.5458 66.696 75.4658 64.904 73.9297 62.664C72.4578 60.424 71.7218 57.896 71.7218 55.08C71.7218 51.624 72.6178 48.904 74.4098 46.92C76.2018 44.872 79.1138 43.4 83.1458 42.504C87.1778 41.608 92.5858 41.16 99.3698 41.16H104.17V48.072H99.4658C95.4978 48.072 92.3298 48.264 89.9618 48.648C87.5938 49.032 85.8978 49.704 84.8738 50.664C83.9138 51.56 83.4338 52.84 83.4338 54.504C83.4338 56.616 84.1698 58.344 85.6418 59.688C87.1138 61.032 89.1618 61.704 91.7858 61.704C93.8978 61.704 95.7538 61.224 97.3538 60.264C99.0178 59.24 100.33 57.864 101.29 56.136C102.25 54.408 102.73 52.424 102.73 50.184V39.144C102.73 35.944 102.026 33.64 100.618 32.232C99.2098 30.824 96.8418 30.12 93.5138 30.12C91.6578 30.12 89.6418 30.344 87.4658 30.792C85.3538 31.24 83.1138 32.008 80.7458 33.096C79.5298 33.672 78.4418 33.832 77.4818 33.576C76.5858 33.32 75.8818 32.808 75.3698 32.04C74.8578 31.208 74.6018 30.312 74.6018 29.352C74.6018 28.392 74.8578 27.464 75.3698 26.568C75.8818 25.608 76.7458 24.904 77.9618 24.456C80.9058 23.24 83.7218 22.376 86.4098 21.864C89.1618 21.352 91.6578 21.096 93.8978 21.096C98.5058 21.096 102.282 21.8 105.226 23.208C108.234 24.616 110.474 26.76 111.946 29.64C113.418 32.456 114.154 36.104 114.154 40.584V63.624C114.154 65.608 113.674 67.144 112.714 68.232C111.754 69.256 110.378 69.768 108.586 69.768C106.794 69.768 105.386 69.256 104.362 68.232C103.402 67.144 102.922 65.608 102.922 63.624V59.016H103.69C103.242 61.256 102.346 63.208 101.002 64.872C99.7218 66.472 98.0898 67.72 96.1058 68.616C94.1218 69.512 91.8498 69.96 89.2898 69.96ZM132.286 87.048C130.366 87.048 128.894 86.536 127.87 85.512C126.846 84.488 126.334 82.984 126.334 81V27.336C126.334 25.352 126.846 23.848 127.87 22.824C128.894 21.8 130.334 21.288 132.19 21.288C134.11 21.288 135.582 21.8 136.606 22.824C137.63 23.848 138.142 25.352 138.142 27.336V34.824L137.086 31.944C138.046 28.68 139.998 26.056 142.942 24.072C145.95 22.088 149.438 21.096 153.406 21.096C157.502 21.096 161.086 22.088 164.158 24.072C167.294 26.056 169.726 28.872 171.454 32.52C173.182 36.104 174.046 40.424 174.046 45.48C174.046 50.472 173.182 54.824 171.454 58.536C169.726 62.184 167.326 65 164.254 66.984C161.182 68.968 157.566 69.96 153.406 69.96C149.502 69.96 146.078 69 143.134 67.08C140.19 65.096 138.206 62.536 137.182 59.4H138.334V81C138.334 82.984 137.79 84.488 136.702 85.512C135.678 86.536 134.206 87.048 132.286 87.048ZM150.046 60.84C152.414 60.84 154.494 60.264 156.286 59.112C158.078 57.96 159.454 56.264 160.414 54.024C161.438 51.72 161.95 48.872 161.95 45.48C161.95 40.36 160.862 36.552 158.686 34.056C156.51 31.496 153.63 30.216 150.046 30.216C147.678 30.216 145.598 30.792 143.806 31.944C142.014 33.032 140.606 34.728 139.582 37.032C138.622 39.272 138.142 42.088 138.142 45.48C138.142 50.536 139.23 54.376 141.406 57C143.582 59.56 146.462 60.84 150.046 60.84ZM189.848 87.048C187.928 87.048 186.456 86.536 185.432 85.512C184.408 84.488 183.896 82.984 183.896 81V27.336C183.896 25.352 184.408 23.848 185.432 22.824C186.456 21.8 187.896 21.288 189.752 21.288C191.672 21.288 193.144 21.8 194.168 22.824C195.192 23.848 195.704 25.352 195.704 27.336V34.824L194.648 31.944C195.608 28.68 197.56 26.056 200.504 24.072C203.512 22.088 207 21.096 210.968 21.096C215.064 21.096 218.648 22.088 221.72 24.072C224.856 26.056 227.288 28.872 229.016 32.52C230.744 36.104 231.608 40.424 231.608 45.48C231.608 50.472 230.744 54.824 229.016 58.536C227.288 62.184 224.888 65 221.816 66.984C218.744 68.968 215.128 69.96 210.968 69.96C207.064 69.96 203.64 69 200.696 67.08C197.752 65.096 195.768 62.536 194.744 59.4H195.896V81C195.896 82.984 195.352 84.488 194.264 85.512C193.24 86.536 191.768 87.048 189.848 87.048ZM207.608 60.84C209.976 60.84 212.056 60.264 213.848 59.112C215.64 57.96 217.016 56.264 217.976 54.024C219 51.72 219.512 48.872 219.512 45.48C219.512 40.36 218.424 36.552 216.248 34.056C214.072 31.496 211.192 30.216 207.608 30.216C205.24 30.216 203.16 30.792 201.368 31.944C199.576 33.032 198.168 34.728 197.144 37.032C196.184 39.272 195.704 42.088 195.704 45.48C195.704 50.536 196.792 54.376 198.968 57C201.144 59.56 204.024 60.84 207.608 60.84ZM252.425 87.048C251.017 87.048 249.865 86.664 248.969 85.896C248.073 85.192 247.529 84.232 247.337 83.016C247.209 81.8 247.433 80.52 248.009 79.176L254.537 64.68V69.672L237.065 29.256C236.489 27.848 236.297 26.536 236.489 25.32C236.681 24.104 237.257 23.144 238.217 22.44C239.241 21.672 240.617 21.288 242.345 21.288C243.817 21.288 245.001 21.64 245.897 22.344C246.793 22.984 247.593 24.232 248.297 26.088L261.257 58.44H258.377L271.625 25.992C272.329 24.2 273.161 22.984 274.121 22.344C275.081 21.64 276.361 21.288 277.961 21.288C279.369 21.288 280.489 21.672 281.321 22.44C282.153 23.144 282.665 24.104 282.857 25.32C283.049 26.472 282.825 27.752 282.185 29.16L258.857 82.44C258.025 84.232 257.129 85.448 256.169 86.088C255.209 86.728 253.961 87.048 252.425 87.048ZM324.411 69.768C322.427 69.768 320.891 69.224 319.803 68.136C318.779 66.984 318.267 65.416 318.267 63.432V7.56C318.267 5.512 318.811 3.976 319.899 2.952C320.987 1.864 322.523 1.32 324.507 1.32H347.643C355.067 1.32 360.795 3.176 364.827 6.888C368.859 10.6 370.875 15.784 370.875 22.44C370.875 29.096 368.859 34.312 364.827 38.088C360.795 41.8 355.067 43.656 347.643 43.656H330.555V63.432C330.555 65.416 330.043 66.984 329.019 68.136C327.995 69.224 326.459 69.768 324.411 69.768ZM330.555 33.96H345.723C350.075 33.96 353.371 33 355.611 31.08C357.851 29.096 358.971 26.216 358.971 22.44C358.971 18.664 357.851 15.816 355.611 13.896C353.371 11.976 350.075 11.016 345.723 11.016H330.555V33.96ZM395.772 69.96C390.46 69.96 386.46 68.456 383.772 65.448C381.084 62.376 379.74 57.896 379.74 52.008V6.6C379.74 4.616 380.252 3.112 381.276 2.088C382.3 1.064 383.772 0.551994 385.692 0.551994C387.612 0.551994 389.084 1.064 390.108 2.088C391.196 3.112 391.74 4.616 391.74 6.6V51.432C391.74 54.376 392.348 56.552 393.564 57.96C394.844 59.368 396.636 60.072 398.94 60.072C399.452 60.072 399.932 60.072 400.38 60.072C400.828 60.008 401.276 59.944 401.724 59.88C402.62 59.752 403.228 60.008 403.548 60.648C403.868 61.224 404.028 62.44 404.028 64.296C404.028 65.896 403.708 67.144 403.068 68.04C402.428 68.936 401.372 69.48 399.9 69.672C399.26 69.736 398.588 69.8 397.884 69.864C397.18 69.928 396.476 69.96 395.772 69.96ZM425.852 69.96C422.46 69.96 419.42 69.32 416.732 68.04C414.108 66.696 412.028 64.904 410.492 62.664C409.02 60.424 408.284 57.896 408.284 55.08C408.284 51.624 409.18 48.904 410.972 46.92C412.764 44.872 415.676 43.4 419.708 42.504C423.74 41.608 429.148 41.16 435.932 41.16H440.732V48.072H436.028C432.06 48.072 428.892 48.264 426.524 48.648C424.156 49.032 422.46 49.704 421.436 50.664C420.476 51.56 419.996 52.84 419.996 54.504C419.996 56.616 420.732 58.344 422.204 59.688C423.676 61.032 425.724 61.704 428.348 61.704C430.46 61.704 432.316 61.224 433.916 60.264C435.58 59.24 436.892 57.864 437.852 56.136C438.812 54.408 439.292 52.424 439.292 50.184V39.144C439.292 35.944 438.588 33.64 437.18 32.232C435.772 30.824 433.404 30.12 430.076 30.12C428.22 30.12 426.204 30.344 424.028 30.792C421.916 31.24 419.676 32.008 417.308 33.096C416.092 33.672 415.004 33.832 414.044 33.576C413.148 33.32 412.444 32.808 411.932 32.04C411.42 31.208 411.164 30.312 411.164 29.352C411.164 28.392 411.42 27.464 411.932 26.568C412.444 25.608 413.308 24.904 414.524 24.456C417.468 23.24 420.284 22.376 422.972 21.864C425.724 21.352 428.22 21.096 430.46 21.096C435.068 21.096 438.844 21.8 441.788 23.208C444.796 24.616 447.036 26.76 448.508 29.64C449.98 32.456 450.716 36.104 450.716 40.584V63.624C450.716 65.608 450.236 67.144 449.276 68.232C448.316 69.256 446.94 69.768 445.148 69.768C443.356 69.768 441.948 69.256 440.924 68.232C439.964 67.144 439.484 65.608 439.484 63.624V59.016H440.252C439.804 61.256 438.908 63.208 437.564 64.872C436.284 66.472 434.652 67.72 432.668 68.616C430.684 69.512 428.412 69.96 425.852 69.96ZM468.848 69.768C466.928 69.768 465.456 69.256 464.432 68.232C463.408 67.144 462.896 65.608 462.896 63.624V27.336C462.896 25.352 463.408 23.848 464.432 22.824C465.456 21.8 466.896 21.288 468.752 21.288C470.608 21.288 472.048 21.8 473.072 22.824C474.096 23.848 474.608 25.352 474.608 27.336V33.864L473.552 31.464C474.96 28.072 477.136 25.512 480.08 23.784C483.088 21.992 486.48 21.096 490.256 21.096C494.032 21.096 497.136 21.8 499.568 23.208C502 24.616 503.824 26.76 505.04 29.64C506.256 32.456 506.864 36.04 506.864 40.392V63.624C506.864 65.608 506.352 67.144 505.328 68.232C504.304 69.256 502.832 69.768 500.912 69.768C498.992 69.768 497.488 69.256 496.4 68.232C495.376 67.144 494.864 65.608 494.864 63.624V40.968C494.864 37.32 494.16 34.664 492.752 33C491.408 31.336 489.296 30.504 486.416 30.504C482.896 30.504 480.08 31.624 477.968 33.864C475.92 36.04 474.896 38.952 474.896 42.6V63.624C474.896 67.72 472.88 69.768 468.848 69.768ZM540.557 69.96C536.397 69.96 532.909 69.256 530.093 67.848C527.341 66.44 525.293 64.392 523.949 61.704C522.605 58.952 521.933 55.56 521.933 51.528V31.08H516.941C515.405 31.08 514.221 30.696 513.389 29.928C512.556 29.096 512.14 27.976 512.14 26.568C512.14 25.096 512.556 23.976 513.389 23.208C514.221 22.44 515.405 22.056 516.941 22.056H521.933V13.32C521.933 11.336 522.445 9.832 523.469 8.808C524.557 7.784 526.061 7.272 527.981 7.272C529.901 7.272 531.373 7.784 532.397 8.808C533.421 9.832 533.933 11.336 533.933 13.32V22.056H544.109C545.645 22.056 546.829 22.44 547.661 23.208C548.493 23.976 548.909 25.096 548.909 26.568C548.909 27.976 548.493 29.096 547.661 29.928C546.829 30.696 545.645 31.08 544.109 31.08H533.933V50.856C533.933 53.928 534.605 56.232 535.949 57.768C537.293 59.304 539.469 60.072 542.477 60.072C543.565 60.072 544.525 59.976 545.357 59.784C546.189 59.592 546.925 59.464 547.565 59.4C548.333 59.336 548.973 59.592 549.485 60.168C549.997 60.68 550.253 61.768 550.253 63.432C550.253 64.712 550.029 65.864 549.581 66.888C549.197 67.848 548.461 68.52 547.373 68.904C546.541 69.16 545.453 69.384 544.109 69.576C542.765 69.832 541.581 69.96 540.557 69.96Z" fill="#F4FFCC"/>
</svg>
