<svg width="284" height="170" viewBox="0 0 284 170" fill="none" xmlns="http://www.w3.org/2000/svg">
<path d="M6.77038 69.768C4.78638 69.768 3.25038 69.224 2.16238 68.136C1.13838 66.984 0.626376 65.416 0.626376 63.432V6.888C0.626376 4.84 1.13838 3.272 2.16238 2.184C3.25038 1.09599 4.78638 0.551994 6.77038 0.551994C8.75438 0.551994 10.2584 1.09599 11.2824 2.184C12.3704 3.272 12.9144 4.84 12.9144 6.888V29.544H47.7624V6.888C47.7624 4.84 48.2744 3.272 49.2984 2.184C50.3864 1.09599 51.9224 0.551994 53.9064 0.551994C55.8904 0.551994 57.3944 1.09599 58.4184 2.184C59.5064 3.272 60.0504 4.84 60.0504 6.888V63.432C60.0504 65.416 59.5064 66.984 58.4184 68.136C57.3944 69.224 55.8904 69.768 53.9064 69.768C51.9224 69.768 50.3864 69.224 49.2984 68.136C48.2744 66.984 47.7624 65.416 47.7624 63.432V39.816H12.9144V63.432C12.9144 65.416 12.4024 66.984 11.3784 68.136C10.3544 69.224 8.81838 69.768 6.77038 69.768ZM89.1804 69.96C85.7884 69.96 82.7484 69.32 80.0604 68.04C77.4364 66.696 75.3564 64.904 73.8204 62.664C72.3484 60.424 71.6124 57.896 71.6124 55.08C71.6124 51.624 72.5084 48.904 74.3004 46.92C76.0924 44.872 79.0044 43.4 83.0364 42.504C87.0684 41.608 92.4764 41.16 99.2604 41.16H104.06V48.072H99.3564C95.3884 48.072 92.2204 48.264 89.8524 48.648C87.4844 49.032 85.7884 49.704 84.7644 50.664C83.8044 51.56 83.3244 52.84 83.3244 54.504C83.3244 56.616 84.0604 58.344 85.5324 59.688C87.0044 61.032 89.0524 61.704 91.6764 61.704C93.7884 61.704 95.6444 61.224 97.2444 60.264C98.9084 59.24 100.22 57.864 101.18 56.136C102.14 54.408 102.62 52.424 102.62 50.184V39.144C102.62 35.944 101.916 33.64 100.508 32.232C99.1004 30.824 96.7324 30.12 93.4044 30.12C91.5484 30.12 89.5324 30.344 87.3564 30.792C85.2444 31.24 83.0044 32.008 80.6364 33.096C79.4204 33.672 78.3324 33.832 77.3724 33.576C76.4764 33.32 75.7724 32.808 75.2604 32.04C74.7484 31.208 74.4924 30.312 74.4924 29.352C74.4924 28.392 74.7484 27.464 75.2604 26.568C75.7724 25.608 76.6364 24.904 77.8524 24.456C80.7964 23.24 83.6124 22.376 86.3004 21.864C89.0524 21.352 91.5484 21.096 93.7884 21.096C98.3964 21.096 102.172 21.8 105.116 23.208C108.124 24.616 110.364 26.76 111.836 29.64C113.308 32.456 114.044 36.104 114.044 40.584V63.624C114.044 65.608 113.564 67.144 112.604 68.232C111.644 69.256 110.268 69.768 108.476 69.768C106.684 69.768 105.276 69.256 104.252 68.232C103.292 67.144 102.812 65.608 102.812 63.624V59.016H103.58C103.132 61.256 102.236 63.208 100.892 64.872C99.6124 66.472 97.9804 67.72 95.9964 68.616C94.0124 69.512 91.7404 69.96 89.1804 69.96ZM132.176 87.048C130.256 87.048 128.784 86.536 127.76 85.512C126.736 84.488 126.224 82.984 126.224 81V27.336C126.224 25.352 126.736 23.848 127.76 22.824C128.784 21.8 130.224 21.288 132.08 21.288C134 21.288 135.472 21.8 136.496 22.824C137.52 23.848 138.032 25.352 138.032 27.336V34.824L136.976 31.944C137.936 28.68 139.888 26.056 142.832 24.072C145.84 22.088 149.328 21.096 153.296 21.096C157.392 21.096 160.976 22.088 164.048 24.072C167.184 26.056 169.616 28.872 171.344 32.52C173.072 36.104 173.936 40.424 173.936 45.48C173.936 50.472 173.072 54.824 171.344 58.536C169.616 62.184 167.216 65 164.144 66.984C161.072 68.968 157.456 69.96 153.296 69.96C149.392 69.96 145.968 69 143.024 67.08C140.08 65.096 138.096 62.536 137.072 59.4H138.224V81C138.224 82.984 137.68 84.488 136.592 85.512C135.568 86.536 134.096 87.048 132.176 87.048ZM149.936 60.84C152.304 60.84 154.384 60.264 156.176 59.112C157.968 57.96 159.344 56.264 160.304 54.024C161.328 51.72 161.84 48.872 161.84 45.48C161.84 40.36 160.752 36.552 158.576 34.056C156.4 31.496 153.52 30.216 149.936 30.216C147.568 30.216 145.488 30.792 143.696 31.944C141.904 33.032 140.496 34.728 139.472 37.032C138.512 39.272 138.032 42.088 138.032 45.48C138.032 50.536 139.12 54.376 141.296 57C143.472 59.56 146.352 60.84 149.936 60.84ZM189.739 87.048C187.819 87.048 186.347 86.536 185.323 85.512C184.299 84.488 183.787 82.984 183.787 81V27.336C183.787 25.352 184.299 23.848 185.323 22.824C186.347 21.8 187.787 21.288 189.643 21.288C191.563 21.288 193.035 21.8 194.059 22.824C195.083 23.848 195.595 25.352 195.595 27.336V34.824L194.539 31.944C195.499 28.68 197.451 26.056 200.395 24.072C203.403 22.088 206.891 21.096 210.859 21.096C214.955 21.096 218.539 22.088 221.611 24.072C224.747 26.056 227.179 28.872 228.907 32.52C230.635 36.104 231.499 40.424 231.499 45.48C231.499 50.472 230.635 54.824 228.907 58.536C227.179 62.184 224.779 65 221.707 66.984C218.635 68.968 215.019 69.96 210.859 69.96C206.955 69.96 203.531 69 200.587 67.08C197.643 65.096 195.659 62.536 194.635 59.4H195.787V81C195.787 82.984 195.243 84.488 194.155 85.512C193.131 86.536 191.659 87.048 189.739 87.048ZM207.499 60.84C209.867 60.84 211.947 60.264 213.739 59.112C215.531 57.96 216.907 56.264 217.867 54.024C218.891 51.72 219.403 48.872 219.403 45.48C219.403 40.36 218.315 36.552 216.139 34.056C213.963 31.496 211.083 30.216 207.499 30.216C205.131 30.216 203.051 30.792 201.259 31.944C199.467 33.032 198.059 34.728 197.035 37.032C196.075 39.272 195.595 42.088 195.595 45.48C195.595 50.536 196.683 54.376 198.859 57C201.035 59.56 203.915 60.84 207.499 60.84ZM252.316 87.048C250.908 87.048 249.756 86.664 248.86 85.896C247.964 85.192 247.42 84.232 247.228 83.016C247.1 81.8 247.324 80.52 247.9 79.176L254.428 64.68V69.672L236.956 29.256C236.38 27.848 236.188 26.536 236.38 25.32C236.572 24.104 237.148 23.144 238.108 22.44C239.132 21.672 240.508 21.288 242.236 21.288C243.708 21.288 244.892 21.64 245.788 22.344C246.684 22.984 247.484 24.232 248.188 26.088L261.148 58.44H258.268L271.516 25.992C272.22 24.2 273.052 22.984 274.012 22.344C274.972 21.64 276.252 21.288 277.852 21.288C279.26 21.288 280.38 21.672 281.212 22.44C282.044 23.144 282.556 24.104 282.748 25.32C282.94 26.472 282.716 27.752 282.076 29.16L258.748 82.44C257.916 84.232 257.02 85.448 256.06 86.088C255.1 86.728 253.852 87.048 252.316 87.048ZM46.1454 169.768C44.1614 169.768 42.6254 169.224 41.5374 168.136C40.5134 166.984 40.0014 165.416 40.0014 163.432V107.56C40.0014 105.512 40.5454 103.976 41.6334 102.952C42.7214 101.864 44.2574 101.32 46.2414 101.32H69.3774C76.8014 101.32 82.5294 103.176 86.5614 106.888C90.5934 110.6 92.6094 115.784 92.6094 122.44C92.6094 129.096 90.5934 134.312 86.5614 138.088C82.5294 141.8 76.8014 143.656 69.3774 143.656H52.2894V163.432C52.2894 165.416 51.7774 166.984 50.7534 168.136C49.7294 169.224 48.1934 169.768 46.1454 169.768ZM52.2894 133.96H67.4574C71.8094 133.96 75.1054 133 77.3454 131.08C79.5854 129.096 80.7054 126.216 80.7054 122.44C80.7054 118.664 79.5854 115.816 77.3454 113.896C75.1054 111.976 71.8094 111.016 67.4574 111.016H52.2894V133.96ZM117.506 169.96C112.194 169.96 108.194 168.456 105.506 165.448C102.818 162.376 101.474 157.896 101.474 152.008V106.6C101.474 104.616 101.986 103.112 103.01 102.088C104.034 101.064 105.506 100.552 107.426 100.552C109.346 100.552 110.818 101.064 111.842 102.088C112.93 103.112 113.474 104.616 113.474 106.6V151.432C113.474 154.376 114.082 156.552 115.298 157.96C116.578 159.368 118.37 160.072 120.674 160.072C121.186 160.072 121.666 160.072 122.114 160.072C122.562 160.008 123.01 159.944 123.458 159.88C124.354 159.752 124.962 160.008 125.282 160.648C125.602 161.224 125.762 162.44 125.762 164.296C125.762 165.896 125.442 167.144 124.802 168.04C124.162 168.936 123.106 169.48 121.634 169.672C120.994 169.736 120.322 169.8 119.618 169.864C118.914 169.928 118.21 169.96 117.506 169.96ZM147.587 169.96C144.195 169.96 141.155 169.32 138.467 168.04C135.843 166.696 133.763 164.904 132.227 162.664C130.755 160.424 130.019 157.896 130.019 155.08C130.019 151.624 130.915 148.904 132.707 146.92C134.499 144.872 137.411 143.4 141.443 142.504C145.475 141.608 150.883 141.16 157.667 141.16H162.467V148.072H157.763C153.795 148.072 150.627 148.264 148.259 148.648C145.891 149.032 144.195 149.704 143.171 150.664C142.211 151.56 141.731 152.84 141.731 154.504C141.731 156.616 142.467 158.344 143.939 159.688C145.411 161.032 147.459 161.704 150.083 161.704C152.195 161.704 154.051 161.224 155.651 160.264C157.315 159.24 158.627 157.864 159.587 156.136C160.547 154.408 161.027 152.424 161.027 150.184V139.144C161.027 135.944 160.323 133.64 158.915 132.232C157.507 130.824 155.139 130.12 151.811 130.12C149.955 130.12 147.939 130.344 145.763 130.792C143.651 131.24 141.411 132.008 139.043 133.096C137.827 133.672 136.739 133.832 135.779 133.576C134.883 133.32 134.179 132.808 133.667 132.04C133.155 131.208 132.899 130.312 132.899 129.352C132.899 128.392 133.155 127.464 133.667 126.568C134.179 125.608 135.043 124.904 136.259 124.456C139.203 123.24 142.019 122.376 144.707 121.864C147.459 121.352 149.955 121.096 152.195 121.096C156.803 121.096 160.579 121.8 163.523 123.208C166.531 124.616 168.771 126.76 170.243 129.64C171.715 132.456 172.451 136.104 172.451 140.584V163.624C172.451 165.608 171.971 167.144 171.011 168.232C170.051 169.256 168.675 169.768 166.883 169.768C165.091 169.768 163.683 169.256 162.659 168.232C161.699 167.144 161.219 165.608 161.219 163.624V159.016H161.987C161.539 161.256 160.643 163.208 159.299 164.872C158.019 166.472 156.387 167.72 154.403 168.616C152.419 169.512 150.147 169.96 147.587 169.96ZM190.583 169.768C188.663 169.768 187.191 169.256 186.167 168.232C185.143 167.144 184.631 165.608 184.631 163.624V127.336C184.631 125.352 185.143 123.848 186.167 122.824C187.191 121.8 188.631 121.288 190.487 121.288C192.343 121.288 193.783 121.8 194.807 122.824C195.831 123.848 196.343 125.352 196.343 127.336V133.864L195.287 131.464C196.695 128.072 198.871 125.512 201.815 123.784C204.823 121.992 208.215 121.096 211.991 121.096C215.767 121.096 218.871 121.8 221.303 123.208C223.735 124.616 225.559 126.76 226.775 129.64C227.991 132.456 228.599 136.04 228.599 140.392V163.624C228.599 165.608 228.087 167.144 227.063 168.232C226.039 169.256 224.567 169.768 222.647 169.768C220.727 169.768 219.223 169.256 218.135 168.232C217.111 167.144 216.599 165.608 216.599 163.624V140.968C216.599 137.32 215.895 134.664 214.487 133C213.143 131.336 211.031 130.504 208.151 130.504C204.631 130.504 201.815 131.624 199.703 133.864C197.655 136.04 196.631 138.952 196.631 142.6V163.624C196.631 167.72 194.615 169.768 190.583 169.768ZM262.291 169.96C258.131 169.96 254.643 169.256 251.827 167.848C249.075 166.44 247.027 164.392 245.683 161.704C244.339 158.952 243.667 155.56 243.667 151.528V131.08H238.675C237.139 131.08 235.955 130.696 235.123 129.928C234.291 129.096 233.875 127.976 233.875 126.568C233.875 125.096 234.291 123.976 235.123 123.208C235.955 122.44 237.139 122.056 238.675 122.056H243.667V113.32C243.667 111.336 244.179 109.832 245.203 108.808C246.291 107.784 247.795 107.272 249.715 107.272C251.635 107.272 253.107 107.784 254.131 108.808C255.155 109.832 255.667 111.336 255.667 113.32V122.056H265.843C267.379 122.056 268.563 122.44 269.395 123.208C270.227 123.976 270.643 125.096 270.643 126.568C270.643 127.976 270.227 129.096 269.395 129.928C268.563 130.696 267.379 131.08 265.843 131.08H255.667V150.856C255.667 153.928 256.339 156.232 257.683 157.768C259.027 159.304 261.203 160.072 264.211 160.072C265.299 160.072 266.259 159.976 267.091 159.784C267.923 159.592 268.659 159.464 269.299 159.4C270.067 159.336 270.707 159.592 271.219 160.168C271.731 160.68 271.987 161.768 271.987 163.432C271.987 164.712 271.763 165.864 271.315 166.888C270.931 167.848 270.195 168.52 269.107 168.904C268.275 169.16 267.187 169.384 265.843 169.576C264.499 169.832 263.315 169.96 262.291 169.96Z" fill="#F4FFCC"/>
</svg>
