<svg width="383" height="298" viewBox="0 0 383 298" fill="none" xmlns="http://www.w3.org/2000/svg">
<g clip-path="url(#clip0_53687_157)">
<path d="M371.79 182.904C359.649 211.104 334.855 241.628 299.963 250.668C247.209 264.329 240.945 301.197 146.516 297.778C132.722 297.338 119.024 295.597 105.664 292.586C99.1428 291.091 92.7364 289.239 86.4836 287.043C31.3147 267.654 2.53924 224.986 0.157079 180.343C-2.99166 121.619 44.2229 93.6332 74.9107 77.2481C105.599 60.863 142.584 -2.61046 235.439 0.0858262C249.618 0.454965 263.702 2.24042 277.411 5.40687C308.659 12.7448 340.418 28.9725 358.882 52.6955C360.267 54.4835 361.591 56.3049 362.855 58.1596C387.567 94.5272 388.334 144.455 371.79 182.904Z" fill="#C6FF00"/>
<path opacity="0.8" d="M371.79 182.904C359.649 211.104 334.855 241.628 299.963 250.668C247.209 264.329 240.945 301.197 146.516 297.778C132.722 297.338 119.024 295.597 105.664 292.586C99.1428 291.091 92.7364 289.239 86.4836 287.043C31.3147 267.654 2.53924 224.986 0.157079 180.343C-2.99166 121.619 44.2229 93.6332 74.9107 77.2481C105.599 60.863 142.584 -2.61046 235.439 0.0858262C249.618 0.454965 263.702 2.24042 277.411 5.40687C308.659 12.7448 340.418 28.9725 358.882 52.6955C360.267 54.4835 361.591 56.3049 362.855 58.1596C387.567 94.5272 388.334 144.455 371.79 182.904Z" fill="white"/>
<path d="M361.033 231.516C361.083 231.516 361.973 228.276 361.998 228.061C362.336 225.615 361.313 220.709 358.42 219.557C357.933 219.378 357.408 219.29 356.879 219.299C356.35 219.307 355.829 219.413 355.35 219.608C354.871 219.803 354.444 220.083 354.099 220.43C353.753 220.778 353.495 221.185 353.343 221.624C352.617 223.47 353.648 225.701 354.835 227.224C356.244 229.012 361.033 231.516 361.033 231.516Z" fill="#263238"/>
<path d="M304.488 231.48C306.796 232.302 312.376 232.095 312.384 232.088C312.393 232.081 311.107 228.941 310.991 228.748C309.714 226.545 305.749 222.94 302.6 223.37C302.08 223.453 301.587 223.63 301.151 223.89C300.716 224.15 300.348 224.486 300.073 224.878C299.797 225.269 299.62 225.707 299.553 226.162C299.486 226.617 299.53 227.079 299.682 227.518C300.251 229.406 302.526 230.779 304.488 231.48Z" fill="#263238"/>
<path d="M306.788 245.484C309.17 245.741 314.124 244.396 314.519 244.289C315.397 246.752 316.465 249.161 317.718 251.498C318.435 252.864 319.209 254.216 320.009 255.568C319.539 254.996 319.111 254.495 319.045 254.424C317.141 252.593 312.22 250.025 309.31 251.162C308.835 251.362 308.413 251.647 308.073 251.998C307.733 252.349 307.482 252.757 307.336 253.198C307.19 253.638 307.152 254.1 307.225 254.554C307.298 255.008 307.481 255.444 307.76 255.832C308.881 257.527 311.494 258.321 313.596 258.55C315.698 258.779 319.993 257.706 321.114 257.406C321.419 257.928 321.724 258.443 322.037 258.958C323.545 261.425 325.062 263.886 326.455 266.332C326.949 267.197 327.403 268.062 327.856 268.928C327.436 268.42 327.081 267.998 327.032 267.941C325.12 266.11 320.199 263.542 317.297 264.672C316.821 264.873 316.399 265.158 316.058 265.509C315.717 265.86 315.465 266.269 315.318 266.71C315.171 267.151 315.133 267.614 315.205 268.069C315.278 268.524 315.46 268.96 315.739 269.35C316.86 271.038 319.473 271.831 321.583 272.06C323.694 272.289 327.559 271.345 328.895 270.973C329.323 271.874 329.76 272.768 330.139 273.655C330.378 274.27 330.659 274.842 330.857 275.465C331.054 276.087 331.285 276.688 331.491 277.296C331.846 278.469 332.217 279.677 332.53 280.829C332.761 281.63 332.958 282.395 333.156 283.167C332.678 282.309 331.697 280.628 331.598 280.5C330.032 278.44 325.614 275.257 322.531 275.994C322.026 276.128 321.559 276.354 321.16 276.655C320.762 276.957 320.441 277.328 320.218 277.744C319.996 278.16 319.877 278.613 319.869 279.071C319.862 279.53 319.965 279.985 320.174 280.407C320.998 282.223 323.471 283.36 325.474 283.861C327.724 284.412 332.662 283.782 333.28 283.697C333.61 284.977 333.915 286.221 334.178 287.401C334.92 290.648 335.448 293.481 335.827 295.712H337.954C337.508 293.423 336.89 290.47 336.025 287.065C335.695 285.764 335.316 284.383 334.912 282.967C336.389 282.423 337.829 281.804 339.223 281.115C340.872 282.617 345.108 284.333 345.652 284.548C345.117 285.771 344.581 286.958 344.053 288.066C342.619 291.099 341.275 293.681 340.179 295.712H342.471C343.452 293.767 344.597 291.421 345.768 288.674C346.328 287.43 346.889 286.1 347.416 284.719C348.018 284.819 352.939 285.592 355.214 285.106C357.275 284.662 359.756 283.596 360.638 281.808C360.863 281.393 360.986 280.941 360.996 280.482C361.007 280.022 360.906 279.566 360.7 279.143C360.494 278.72 360.187 278.339 359.8 278.026C359.413 277.712 358.954 277.473 358.453 277.324C355.412 276.502 350.878 279.563 349.238 281.572C349.139 281.694 348.257 283.089 347.721 283.968C347.944 283.411 348.175 282.867 348.397 282.281C348.851 281.136 349.263 279.978 349.716 278.705C349.914 278.097 350.104 277.489 350.301 276.866C350.499 276.244 350.648 275.586 350.821 274.943C351.2 273.441 351.488 271.903 351.752 270.344C352.906 270.687 357.044 271.853 359.171 271.688C361.297 271.524 363.927 270.794 365.114 269.135C365.408 268.754 365.606 268.323 365.695 267.871C365.785 267.419 365.763 266.955 365.633 266.511C365.502 266.066 365.265 265.65 364.937 265.29C364.609 264.931 364.197 264.635 363.729 264.422C360.869 263.206 355.857 265.631 353.887 267.412C353.763 267.519 352.51 268.935 351.843 269.722C351.991 268.785 352.139 267.848 352.255 266.897C352.576 264.157 352.807 261.368 353.079 258.586C353.153 257.735 353.236 256.884 353.318 256.033C353.73 256.161 358.61 257.642 360.992 257.463C363.111 257.299 365.748 256.576 366.935 254.917C367.231 254.536 367.431 254.106 367.521 253.654C367.612 253.202 367.592 252.738 367.462 252.293C367.332 251.848 367.095 251.432 366.767 251.072C366.439 250.712 366.028 250.416 365.559 250.204C362.699 248.988 357.679 251.413 355.709 253.186C355.56 253.322 353.763 255.332 353.335 255.897C353.516 254.023 353.714 252.164 354.002 250.333C354.369 247.863 354.92 245.417 355.651 243.009C355.841 243.066 360.935 244.625 363.366 244.439C365.485 244.275 368.122 243.553 369.309 241.893C369.605 241.513 369.805 241.082 369.895 240.63C369.986 240.178 369.966 239.714 369.836 239.27C369.706 238.825 369.469 238.409 369.141 238.049C368.813 237.689 368.402 237.393 367.933 237.18C365.072 235.964 360.053 238.389 358.083 240.162C357.951 240.284 356.582 241.829 355.948 242.58L355.791 242.515C356.6 240.108 357.659 237.769 358.956 235.528C359.657 234.284 360.399 233.125 361.149 232.024C362.064 232.395 366.259 234.069 368.477 234.105C370.694 234.141 373.315 233.676 374.7 232.138C375.042 231.787 375.294 231.378 375.441 230.937C375.588 230.496 375.626 230.032 375.553 229.578C375.48 229.123 375.297 228.687 375.017 228.297C374.736 227.908 374.364 227.574 373.925 227.318C371.238 225.844 365.946 227.775 363.762 229.356C363.646 229.442 362.542 230.429 361.759 231.158C362.105 230.657 362.46 230.143 362.797 229.678C364.092 227.911 365.394 226.366 366.564 225C367.24 224.235 367.867 223.57 368.46 222.912C369.573 222.912 374.074 222.676 376.027 221.839C377.981 221.002 380.091 219.515 380.511 217.598C380.627 217.151 380.633 216.687 380.528 216.237C380.424 215.788 380.212 215.362 379.905 214.989C379.599 214.615 379.205 214.301 378.75 214.068C378.295 213.835 377.789 213.688 377.264 213.636C374.09 213.393 370.422 217.212 369.317 219.5C369.227 219.701 368.139 222.919 368.196 222.919H368.262C367.685 223.52 367.059 224.171 366.4 224.893C365.196 226.238 363.844 227.754 362.509 229.506C361.043 231.375 359.702 233.317 358.495 235.321C357.133 237.561 356.002 239.902 355.115 242.315V242.401C355.115 241.593 355.016 239.326 354.983 239.154C354.563 236.715 352.09 232.217 348.95 231.773C348.425 231.711 347.891 231.745 347.383 231.874C346.875 232.003 346.404 232.223 346.001 232.521C345.598 232.819 345.272 233.187 345.044 233.602C344.816 234.016 344.692 234.468 344.68 234.927C344.54 236.873 346.213 238.789 347.82 239.991C349.642 241.335 354.637 242.587 355.033 242.687C354.201 245.162 353.562 247.683 353.12 250.232C352.848 251.713 352.634 253.215 352.436 254.724C352.436 254.009 352.379 253.394 352.362 253.294C351.933 250.855 349.461 246.356 346.32 245.913C345.796 245.85 345.262 245.884 344.754 246.013C344.246 246.142 343.774 246.363 343.371 246.66C342.968 246.958 342.642 247.326 342.415 247.741C342.187 248.156 342.063 248.607 342.05 249.067C341.91 251.012 343.583 252.929 345.199 254.13C346.815 255.332 351.068 256.483 352.189 256.769C352.123 257.349 352.049 257.928 351.983 258.507C351.661 261.289 351.365 264.064 350.977 266.775C350.837 267.733 350.664 268.67 350.491 269.636C350.491 269.014 350.433 268.492 350.425 268.413C349.996 265.974 347.524 261.475 344.383 261.032C343.859 260.969 343.325 261.004 342.817 261.132C342.308 261.261 341.837 261.482 341.434 261.78C341.031 262.077 340.705 262.446 340.478 262.86C340.25 263.275 340.126 263.727 340.113 264.186C339.973 266.131 341.646 268.048 343.262 269.242C344.878 270.437 348.71 271.488 350.046 271.839C349.84 272.79 349.634 273.748 349.378 274.699C349.189 275.322 349.057 275.937 348.826 276.552C348.595 277.167 348.405 277.775 348.199 278.383C347.746 279.527 347.293 280.714 346.815 281.83C346.493 282.602 346.172 283.339 345.85 284.076C345.999 283.124 346.246 281.258 346.246 281.1C346.16 278.932 345.433 276.819 344.136 274.964C344.138 274.724 344.116 274.485 344.07 274.249C343.993 273.795 343.807 273.36 343.523 272.972C343.24 272.584 342.865 272.253 342.425 271.999C341.984 271.746 341.486 271.575 340.964 271.5C340.443 271.424 339.908 271.444 339.396 271.56C336.33 272.325 334.492 277.045 334.409 279.513C334.409 279.656 334.549 281.243 334.665 282.238C334.492 281.665 334.335 281.1 334.154 280.507C333.807 279.334 333.412 278.168 333 276.931C332.777 276.33 332.546 275.729 332.316 275.114C332.085 274.499 331.796 273.884 331.491 273.262C330.848 271.831 330.115 270.401 329.34 268.971C330.527 268.699 334.714 267.69 336.379 266.532C338.044 265.373 339.784 263.514 339.718 261.568C339.721 261.111 339.614 260.659 339.403 260.24C339.193 259.821 338.883 259.445 338.495 259.137C338.107 258.828 337.648 258.593 337.149 258.448C336.649 258.303 336.121 258.25 335.596 258.293C332.431 258.65 329.826 263.07 329.274 265.502C329.274 265.652 329.101 267.426 329.043 268.406C328.573 267.555 328.103 266.703 327.592 265.852C326.117 263.406 324.534 260.975 322.976 258.536C322.49 257.821 322.029 257.041 321.559 256.297C321.979 256.204 326.991 255.096 328.854 253.801C330.502 252.65 332.258 250.783 332.151 248.831C332.153 248.374 332.045 247.923 331.834 247.505C331.623 247.087 331.313 246.712 330.925 246.404C330.537 246.096 330.079 245.862 329.58 245.717C329.081 245.572 328.553 245.519 328.029 245.562C324.872 245.913 322.259 250.34 321.715 252.764C321.715 252.95 321.476 255.503 321.46 256.161C320.421 254.509 319.407 252.864 318.484 251.198C317.214 248.962 316.113 246.656 315.187 244.296C315.385 244.253 320.627 243.116 322.531 241.793C324.18 240.642 325.936 238.775 325.87 236.823C325.873 236.366 325.766 235.913 325.556 235.494C325.345 235.075 325.036 234.699 324.647 234.391C324.259 234.082 323.8 233.847 323.301 233.702C322.802 233.557 322.273 233.504 321.748 233.547C318.583 233.905 315.978 238.332 315.434 240.756C315.393 240.913 315.236 242.866 315.187 243.796H315.006C314.16 241.398 313.559 238.94 313.209 236.451C313.003 235.085 312.887 233.761 312.813 232.481C313.81 232.353 318.377 231.766 320.232 230.715C322.086 229.663 323.99 228.033 324.172 226.095C324.233 225.639 324.183 225.177 324.025 224.739C323.867 224.301 323.605 223.897 323.255 223.553C322.905 223.209 322.475 222.932 321.994 222.742C321.513 222.551 320.991 222.451 320.462 222.447C317.281 222.497 314.099 226.645 313.275 229.005C313.233 229.134 312.945 230.486 312.755 231.466C312.755 230.886 312.689 230.293 312.681 229.735C312.632 227.647 312.739 225.73 312.846 224.013C312.92 223.048 313.003 222.175 313.093 221.367C314.008 220.795 317.635 218.506 318.723 216.847C319.811 215.188 320.644 212.963 319.77 211.168C319.584 210.739 319.296 210.348 318.923 210.021C318.551 209.695 318.104 209.44 317.611 209.274C317.117 209.108 316.589 209.034 316.061 209.057C315.532 209.081 315.015 209.2 314.544 209.409C311.741 210.732 311.123 215.681 311.651 218.106C311.692 218.32 312.838 221.524 312.887 221.496H312.945C312.838 222.275 312.731 223.119 312.64 224.035C312.492 225.73 312.335 227.647 312.327 229.756C312.292 232.016 312.41 234.275 312.681 236.522C312.977 239.043 313.529 241.537 314.33 243.974V244.06C313.819 243.388 312.294 241.543 312.162 241.414C310.258 239.583 305.337 237.016 302.427 238.146C301.951 238.346 301.529 238.631 301.188 238.982C300.847 239.333 300.595 239.742 300.448 240.183C300.301 240.624 300.263 241.087 300.335 241.542C300.408 241.997 300.59 242.433 300.869 242.823C302.04 244.461 304.653 245.262 306.788 245.484Z" fill="#263238"/>
<path opacity="0.3" d="M304.488 231.48C306.796 232.302 312.376 232.095 312.384 232.088C312.393 232.081 311.107 228.941 310.991 228.748C309.714 226.545 305.749 222.94 302.6 223.37C302.08 223.453 301.587 223.63 301.151 223.89C300.716 224.15 300.348 224.486 300.073 224.878C299.797 225.269 299.62 225.707 299.553 226.162C299.486 226.617 299.53 227.079 299.682 227.518C300.251 229.406 302.526 230.779 304.488 231.48Z" fill="#263238"/>
<path opacity="0.3" d="M361.033 231.516C361.083 231.516 361.973 228.276 361.998 228.061C362.336 225.615 361.313 220.709 358.42 219.557C357.933 219.378 357.408 219.29 356.879 219.299C356.35 219.307 355.829 219.413 355.35 219.608C354.871 219.803 354.444 220.083 354.099 220.43C353.753 220.778 353.495 221.185 353.343 221.624C352.617 223.47 353.648 225.701 354.835 227.224C356.244 229.012 361.033 231.516 361.033 231.516Z" fill="#263238"/>
<path opacity="0.3" d="M306.788 245.484C309.17 245.741 314.124 244.396 314.519 244.289C315.397 246.752 316.465 249.161 317.718 251.498C318.435 252.864 319.209 254.216 320.009 255.568C319.539 254.996 319.111 254.495 319.045 254.424C317.141 252.593 312.22 250.025 309.31 251.162C308.835 251.362 308.413 251.647 308.073 251.998C307.733 252.349 307.482 252.757 307.336 253.198C307.19 253.638 307.152 254.1 307.225 254.554C307.298 255.008 307.481 255.444 307.76 255.832C308.881 257.527 311.494 258.321 313.596 258.55C315.698 258.779 319.993 257.706 321.114 257.406C321.419 257.928 321.724 258.443 322.037 258.958C323.545 261.425 325.062 263.886 326.455 266.332C326.949 267.197 327.403 268.062 327.856 268.928C327.436 268.42 327.081 267.998 327.032 267.941C325.12 266.11 320.199 263.542 317.297 264.672C316.821 264.873 316.399 265.158 316.058 265.509C315.717 265.86 315.465 266.269 315.318 266.71C315.171 267.151 315.133 267.614 315.205 268.069C315.278 268.524 315.46 268.96 315.739 269.35C316.86 271.038 319.473 271.831 321.583 272.06C323.694 272.289 327.559 271.345 328.895 270.973C329.323 271.874 329.76 272.768 330.139 273.655C330.378 274.27 330.659 274.842 330.857 275.465C331.054 276.087 331.285 276.688 331.491 277.296C331.846 278.469 332.217 279.677 332.53 280.829C332.761 281.63 332.958 282.395 333.156 283.167C332.678 282.309 331.697 280.628 331.598 280.5C330.032 278.44 325.614 275.257 322.531 275.994C322.026 276.128 321.559 276.354 321.16 276.655C320.762 276.957 320.441 277.328 320.218 277.744C319.996 278.16 319.877 278.613 319.869 279.071C319.862 279.53 319.965 279.985 320.174 280.407C320.998 282.223 323.471 283.36 325.474 283.861C327.724 284.412 332.662 283.782 333.28 283.697C333.61 284.977 333.915 286.221 334.178 287.401C334.92 290.648 335.448 293.481 335.827 295.712H337.954C337.508 293.423 336.89 290.47 336.025 287.065C335.695 285.764 335.316 284.383 334.912 282.967C336.389 282.423 337.829 281.804 339.223 281.115C340.872 282.617 345.108 284.333 345.652 284.548C345.117 285.771 344.581 286.958 344.053 288.066C342.619 291.099 341.275 293.681 340.179 295.712H342.471C343.452 293.767 344.597 291.421 345.768 288.674C346.328 287.43 346.889 286.1 347.416 284.719C348.018 284.819 352.939 285.592 355.214 285.106C357.275 284.662 359.756 283.596 360.638 281.808C360.863 281.393 360.986 280.941 360.996 280.482C361.007 280.022 360.906 279.566 360.7 279.143C360.494 278.72 360.187 278.339 359.8 278.026C359.413 277.712 358.954 277.473 358.453 277.324C355.412 276.502 350.878 279.563 349.238 281.572C349.139 281.694 348.257 283.089 347.721 283.968C347.944 283.411 348.175 282.867 348.397 282.281C348.851 281.136 349.263 279.978 349.716 278.705C349.914 278.097 350.104 277.489 350.301 276.866C350.499 276.244 350.648 275.586 350.821 274.943C351.2 273.441 351.488 271.903 351.752 270.344C352.906 270.687 357.044 271.853 359.171 271.688C361.297 271.524 363.927 270.794 365.114 269.135C365.408 268.754 365.606 268.323 365.695 267.871C365.785 267.419 365.763 266.955 365.633 266.511C365.502 266.066 365.265 265.65 364.937 265.29C364.609 264.931 364.197 264.635 363.729 264.422C360.869 263.206 355.857 265.631 353.887 267.412C353.763 267.519 352.51 268.935 351.843 269.722C351.991 268.785 352.139 267.848 352.255 266.897C352.576 264.157 352.807 261.368 353.079 258.586C353.153 257.735 353.236 256.884 353.318 256.033C353.73 256.161 358.61 257.642 360.992 257.463C363.111 257.299 365.748 256.576 366.935 254.917C367.231 254.536 367.431 254.106 367.521 253.654C367.612 253.202 367.592 252.738 367.462 252.293C367.332 251.848 367.095 251.432 366.767 251.072C366.439 250.712 366.028 250.416 365.559 250.204C362.699 248.988 357.679 251.413 355.709 253.186C355.56 253.322 353.763 255.332 353.335 255.897C353.516 254.023 353.714 252.164 354.002 250.333C354.369 247.863 354.92 245.417 355.651 243.009C355.841 243.066 360.935 244.625 363.366 244.439C365.485 244.275 368.122 243.553 369.309 241.893C369.605 241.513 369.805 241.082 369.895 240.63C369.986 240.178 369.966 239.714 369.836 239.27C369.706 238.825 369.469 238.409 369.141 238.049C368.813 237.689 368.402 237.393 367.933 237.18C365.072 235.964 360.053 238.389 358.083 240.162C357.951 240.284 356.582 241.829 355.948 242.58L355.791 242.515C356.6 240.108 357.659 237.769 358.956 235.528C359.657 234.284 360.399 233.125 361.149 232.024C362.064 232.395 366.259 234.069 368.477 234.105C370.694 234.141 373.315 233.676 374.7 232.138C375.042 231.787 375.294 231.378 375.441 230.937C375.588 230.496 375.626 230.032 375.553 229.578C375.48 229.123 375.297 228.687 375.017 228.297C374.736 227.908 374.364 227.574 373.925 227.318C371.238 225.844 365.946 227.775 363.762 229.356C363.646 229.442 362.542 230.429 361.759 231.158C362.105 230.657 362.46 230.143 362.797 229.678C364.092 227.911 365.394 226.366 366.564 225C367.24 224.235 367.867 223.57 368.46 222.912C369.573 222.912 374.074 222.676 376.027 221.839C377.981 221.002 380.091 219.515 380.511 217.598C380.627 217.151 380.633 216.687 380.528 216.237C380.424 215.788 380.212 215.362 379.905 214.989C379.599 214.615 379.205 214.301 378.75 214.068C378.295 213.835 377.789 213.688 377.264 213.636C374.09 213.393 370.422 217.212 369.317 219.5C369.227 219.701 368.139 222.919 368.196 222.919H368.262C367.685 223.52 367.059 224.171 366.4 224.893C365.196 226.238 363.844 227.754 362.509 229.506C361.043 231.375 359.702 233.317 358.495 235.321C357.133 237.561 356.002 239.902 355.115 242.315V242.401C355.115 241.593 355.016 239.326 354.983 239.154C354.563 236.715 352.09 232.217 348.95 231.773C348.425 231.711 347.891 231.745 347.383 231.874C346.875 232.003 346.404 232.223 346.001 232.521C345.598 232.819 345.272 233.187 345.044 233.602C344.816 234.016 344.692 234.468 344.68 234.927C344.54 236.873 346.213 238.789 347.82 239.991C349.642 241.335 354.637 242.587 355.033 242.687C354.201 245.162 353.562 247.683 353.12 250.232C352.848 251.713 352.634 253.215 352.436 254.724C352.436 254.009 352.379 253.394 352.362 253.294C351.933 250.855 349.461 246.356 346.32 245.913C345.796 245.85 345.262 245.884 344.754 246.013C344.246 246.142 343.774 246.363 343.371 246.66C342.968 246.958 342.642 247.326 342.415 247.741C342.187 248.156 342.063 248.607 342.05 249.067C341.91 251.012 343.583 252.929 345.199 254.13C346.815 255.332 351.068 256.483 352.189 256.769C352.123 257.349 352.049 257.928 351.983 258.507C351.661 261.289 351.365 264.064 350.977 266.775C350.837 267.733 350.664 268.67 350.491 269.636C350.491 269.014 350.433 268.492 350.425 268.413C349.996 265.974 347.524 261.475 344.383 261.032C343.859 260.969 343.325 261.004 342.817 261.132C342.308 261.261 341.837 261.482 341.434 261.78C341.031 262.077 340.705 262.446 340.478 262.86C340.25 263.275 340.126 263.727 340.113 264.186C339.973 266.131 341.646 268.048 343.262 269.242C344.878 270.437 348.71 271.488 350.046 271.839C349.84 272.79 349.634 273.748 349.378 274.699C349.189 275.322 349.057 275.937 348.826 276.552C348.595 277.167 348.405 277.775 348.199 278.383C347.746 279.527 347.293 280.714 346.815 281.83C346.493 282.602 346.172 283.339 345.85 284.076C345.999 283.124 346.246 281.258 346.246 281.1C346.16 278.932 345.433 276.819 344.136 274.964C344.138 274.724 344.116 274.485 344.07 274.249C343.993 273.795 343.807 273.36 343.523 272.972C343.24 272.584 342.865 272.253 342.425 271.999C341.984 271.746 341.486 271.575 340.964 271.5C340.443 271.424 339.908 271.444 339.396 271.56C336.33 272.325 334.492 277.045 334.409 279.513C334.409 279.656 334.549 281.243 334.665 282.238C334.492 281.665 334.335 281.1 334.154 280.507C333.807 279.334 333.412 278.168 333 276.931C332.777 276.33 332.546 275.729 332.316 275.114C332.085 274.499 331.796 273.884 331.491 273.262C330.848 271.831 330.115 270.401 329.34 268.971C330.527 268.699 334.714 267.69 336.379 266.532C338.044 265.373 339.784 263.514 339.718 261.568C339.721 261.111 339.614 260.659 339.403 260.24C339.193 259.821 338.883 259.445 338.495 259.137C338.107 258.828 337.648 258.593 337.149 258.448C336.649 258.303 336.121 258.25 335.596 258.293C332.431 258.65 329.826 263.07 329.274 265.502C329.274 265.652 329.101 267.426 329.043 268.406C328.573 267.555 328.103 266.703 327.592 265.852C326.117 263.406 324.534 260.975 322.976 258.536C322.49 257.821 322.029 257.041 321.559 256.297C321.979 256.204 326.991 255.096 328.854 253.801C330.502 252.65 332.258 250.783 332.151 248.831C332.153 248.374 332.045 247.923 331.834 247.505C331.623 247.087 331.313 246.712 330.925 246.404C330.537 246.096 330.079 245.862 329.58 245.717C329.081 245.572 328.553 245.519 328.029 245.562C324.872 245.913 322.259 250.34 321.715 252.764C321.715 252.95 321.476 255.503 321.46 256.161C320.421 254.509 319.407 252.864 318.484 251.198C317.214 248.962 316.113 246.656 315.187 244.296C315.385 244.253 320.627 243.116 322.531 241.793C324.18 240.642 325.936 238.775 325.87 236.823C325.873 236.366 325.766 235.913 325.556 235.494C325.345 235.075 325.036 234.699 324.647 234.391C324.259 234.082 323.8 233.847 323.301 233.702C322.802 233.557 322.273 233.504 321.748 233.547C318.583 233.905 315.978 238.332 315.434 240.756C315.393 240.913 315.236 242.866 315.187 243.796H315.006C314.16 241.398 313.559 238.94 313.209 236.451C313.003 235.085 312.887 233.761 312.813 232.481C313.81 232.353 318.377 231.766 320.232 230.715C322.086 229.663 323.99 228.033 324.172 226.095C324.233 225.639 324.183 225.177 324.025 224.739C323.867 224.301 323.605 223.897 323.255 223.553C322.905 223.209 322.475 222.932 321.994 222.742C321.513 222.551 320.991 222.451 320.462 222.447C317.281 222.497 314.099 226.645 313.275 229.005C313.233 229.134 312.945 230.486 312.755 231.466C312.755 230.886 312.689 230.293 312.681 229.735C312.632 227.647 312.739 225.73 312.846 224.013C312.92 223.048 313.003 222.175 313.093 221.367C314.008 220.795 317.635 218.506 318.723 216.847C319.811 215.188 320.644 212.963 319.77 211.168C319.584 210.739 319.296 210.348 318.923 210.021C318.551 209.695 318.104 209.44 317.611 209.274C317.117 209.108 316.589 209.034 316.061 209.057C315.532 209.081 315.015 209.2 314.544 209.409C311.741 210.732 311.123 215.681 311.651 218.106C311.692 218.32 312.838 221.524 312.887 221.496H312.945C312.838 222.275 312.731 223.119 312.64 224.035C312.492 225.73 312.335 227.647 312.327 229.756C312.292 232.016 312.41 234.275 312.681 236.522C312.977 239.043 313.529 241.537 314.33 243.974V244.06C313.819 243.388 312.294 241.543 312.162 241.414C310.258 239.583 305.337 237.016 302.427 238.146C301.951 238.346 301.529 238.631 301.188 238.982C300.847 239.333 300.595 239.742 300.448 240.183C300.301 240.624 300.263 241.087 300.335 241.542C300.408 241.997 300.59 242.433 300.869 242.823C302.04 244.461 304.653 245.262 306.788 245.484Z" fill="#263238"/>
<path d="M212.886 16.5566H29.0148V289.704H212.886V16.5566Z" stroke="#263238" stroke-width="0.633213" stroke-linecap="round" stroke-linejoin="round"/>
<path d="M207.429 22.457H34.4633V283.803H207.429V22.457Z" stroke="#263238" stroke-width="0.633213" stroke-linecap="round" stroke-linejoin="round"/>
<path d="M204.405 103.739H34.463V109.711H204.405V103.739Z" stroke="#263238" stroke-width="0.633213" stroke-linecap="round" stroke-linejoin="round"/>
<path d="M122.883 201.956V283.732H115.992V201.956" stroke="#263238" stroke-width="0.633213" stroke-linecap="round" stroke-linejoin="round"/>
<path d="M115.992 195.978V109.718" stroke="#263238" stroke-width="0.633213" stroke-linecap="round" stroke-linejoin="round"/>
<path d="M122.883 195.978V109.718" stroke="#263238" stroke-width="0.633213" stroke-linecap="round" stroke-linejoin="round"/>
<path d="M115.992 103.739V22.4141H122.883V103.739" stroke="#263238" stroke-width="0.633213" stroke-linecap="round" stroke-linejoin="round"/>
<path d="M204.405 195.977H34.463V201.949H204.405V195.977Z" stroke="#263238" stroke-width="0.633213" stroke-linecap="round" stroke-linejoin="round"/>
<path d="M199.714 195.978V109.718" stroke="#263238" stroke-width="0.633213" stroke-linecap="round" stroke-linejoin="round"/>
<path d="M199.714 103.739V22.457H34.4633V103.739V109.718V195.977V201.957V283.803H199.714V201.957" stroke="#263238" stroke-width="0.633213" stroke-linecap="round" stroke-linejoin="round"/>
<path d="M194.736 35.0298L141.388 81.3103" stroke="#263238" stroke-width="0.633213" stroke-linecap="round" stroke-linejoin="round"/>
<path d="M176.676 62.5579L162.448 74.9022" stroke="#263238" stroke-width="0.633213" stroke-linecap="round" stroke-linejoin="round"/>
<path d="M158.624 79.179L152.607 84.3999" stroke="#263238" stroke-width="0.633213" stroke-linecap="round" stroke-linejoin="round"/>
<path d="M77.647 147.058L52.4817 168.9" stroke="#263238" stroke-width="0.633213" stroke-linecap="round" stroke-linejoin="round"/>
<path d="M108.829 133.77L79.0151 159.639" stroke="#263238" stroke-width="0.633213" stroke-linecap="round" stroke-linejoin="round"/>
<path d="M101.716 31.7046L70.5334 58.7605" stroke="#263238" stroke-width="0.633213" stroke-linecap="round" stroke-linejoin="round"/>
<path d="M77.1029 77.7485L69.9894 83.9207" stroke="#263238" stroke-width="0.633213" stroke-linecap="round" stroke-linejoin="round"/>
<path d="M186.526 168.9L178.868 175.544" stroke="#263238" stroke-width="0.633213" stroke-linecap="round" stroke-linejoin="round"/>
<path d="M188.71 142.316L143.844 181.245" stroke="#263238" stroke-width="0.633213" stroke-linecap="round" stroke-linejoin="round"/>
<path d="M153.151 266.689L175.86 246.992" stroke="#263238" stroke-width="0.633213" stroke-linecap="round" stroke-linejoin="round"/>
<path d="M56.8587 243.903L45.9122 253.4" stroke="#263238" stroke-width="0.633213" stroke-linecap="round" stroke-linejoin="round"/>
<path d="M373.637 18.4092H261.477V141.838H373.637V18.4092Z" stroke="#263238" stroke-width="0.633213" stroke-linecap="round" stroke-linejoin="round"/>
<path d="M369.384 23.0938H265.73V137.161H369.384V23.0938Z" stroke="#263238" stroke-width="0.633213" stroke-linecap="round" stroke-linejoin="round"/>
<path d="M345.084 49.842H290.038V110.412H345.084V49.842Z" stroke="#263238" stroke-width="0.633213" stroke-linecap="round" stroke-linejoin="round"/>
<path d="M79.4357 266.367C80.2505 263.915 80.8431 261.411 81.2079 258.879C81.4024 257.617 81.507 256.347 81.5211 255.074C81.5583 253.825 81.47 252.576 81.2573 251.341L81.0678 250.432L80.8287 249.467L80.3177 247.536C79.9879 246.241 79.65 244.947 79.345 243.631C79.04 242.315 78.7762 240.985 78.6196 239.626C78.4638 238.271 78.4115 236.91 78.463 235.549C78.463 235.36 78.5499 235.178 78.7044 235.043C78.859 234.909 79.0687 234.834 79.2873 234.834C79.5059 234.834 79.7156 234.909 79.8702 235.043C80.0247 235.178 80.1116 235.36 80.1116 235.549C80.2174 238.133 80.6852 240.695 81.5046 243.18C81.892 244.439 82.3289 245.705 82.7493 246.971L83.3922 248.873L83.7137 249.832L84.0104 250.869C84.3486 252.231 84.5499 253.617 84.6122 255.01C84.707 256.382 84.707 257.757 84.6122 259.129C84.4244 261.866 83.9834 264.586 83.2933 267.261C83.1645 267.69 82.8499 268.06 82.415 268.293C81.9801 268.526 81.4584 268.605 80.9584 268.513C80.4583 268.421 80.0185 268.165 79.7303 267.798C79.4421 267.432 79.3277 266.983 79.4109 266.546C79.4072 266.51 79.4072 266.474 79.4109 266.439L79.4357 266.367Z" fill="#C6FF00" stroke="#263238" stroke-width="0.633213" stroke-linecap="round" stroke-linejoin="round"/>
<path d="M80.837 239.361C80.837 239.361 80.837 235.342 83.4088 233.11C85.9806 230.879 89.2942 230.364 91.4785 230.15C93.7947 229.928 104.51 231.544 104.51 231.544C102.478 234.116 99.972 236.38 97.0919 238.246C92.4182 241.149 80.837 239.361 80.837 239.361Z" fill="#C6FF00" stroke="#263238" stroke-width="0.633213" stroke-linecap="round" stroke-linejoin="round"/>
<path d="M95.0806 233.675C96.2595 233.431 97.454 233.247 98.6579 233.125" stroke="#263238" stroke-width="0.633213" stroke-linecap="round" stroke-linejoin="round"/>
<path d="M80.837 239.361C84.5597 237.08 88.674 235.323 93.0282 234.155" stroke="#263238" stroke-width="0.633213" stroke-linecap="round" stroke-linejoin="round"/>
<path d="M78.4631 235.549C78.4631 235.549 75.6523 229.713 70.9209 228.018C66.1896 226.323 59.8344 230.421 59.8344 230.421C59.8344 230.421 62.6039 235.657 68.3162 236.365C71.7253 236.792 75.2025 236.512 78.4631 235.549Z" fill="#C6FF00" stroke="#263238" stroke-width="0.633213" stroke-linecap="round" stroke-linejoin="round"/>
<path d="M78.4631 235.549C78.4631 235.549 72.3882 232.259 67.3353 231.551L78.4631 235.549Z" fill="#C6FF00"/>
<path d="M78.4631 235.549C78.4631 235.549 72.3882 232.259 67.3353 231.551" stroke="#263238" stroke-width="0.633213" stroke-linecap="round" stroke-linejoin="round"/>
<path d="M108.492 262.484H56.3394L62.3566 295.39H102.474L108.492 262.484Z" fill="#263238" stroke="#263238" stroke-width="0.633213" stroke-linecap="round" stroke-linejoin="round"/>
<path d="M224.36 229.642C224.36 229.642 203.102 226.874 193.219 225.086C185.66 223.72 174.747 221.274 174.747 221.274C174.747 221.274 150.299 212.348 147.991 212.692C145.683 213.035 138.816 218.742 138.816 218.742C138.816 218.742 152.236 234.183 152.829 234.083C153.423 233.983 170.494 230.507 170.494 230.507C170.494 230.507 208.93 250.096 216.01 252.042C223.091 253.987 226.916 254.731 226.916 254.731L224.36 229.642Z" fill="white" stroke="#263238" stroke-width="0.633213" stroke-linecap="round" stroke-linejoin="round"/>
<path d="M129.519 215.438C129.519 215.438 143.713 230.386 145.551 234.241C147.389 238.095 151.411 256.233 153.67 260.023C154.939 262.169 159.11 267.14 162.506 271.073C163.124 271.789 163.9 272.389 164.79 272.839C165.68 273.289 166.665 273.58 167.687 273.693C168.709 273.807 169.746 273.741 170.738 273.499C171.73 273.258 172.656 272.847 173.461 272.289L190.243 260.653C191.058 260.087 191.731 259.384 192.223 258.586C192.714 257.788 193.014 256.912 193.103 256.01C193.193 255.109 193.07 254.201 192.743 253.341C192.415 252.482 191.89 251.69 191.2 251.012L183.501 243.023C182.668 242.161 181.716 241.393 180.665 240.735C174.615 236.951 153.035 223.384 149.112 219.465C144.537 214.894 140.102 209.931 140.102 209.931L129.519 215.438Z" fill="white" stroke="#263238" stroke-width="0.633213" stroke-linecap="round" stroke-linejoin="round"/>
<path d="M131.629 217.376L141.331 211.805C141.127 211.354 141.071 210.863 141.168 210.386C141.266 209.909 141.513 209.464 141.883 209.101C143.169 207.971 145.18 205.046 143.704 203.022C142.229 200.998 131.546 200.519 127.318 203.208C123.089 205.897 116.206 212.549 116.206 212.549L120.888 217.662L126.403 214.966C126.403 214.966 129.634 217.112 131.629 217.376Z" fill="#999999" stroke="#263238" stroke-width="0.633213" stroke-linecap="round" stroke-linejoin="round"/>
<path d="M116.742 213.171L114.03 215.302L117.179 218.713L120.089 216.632L116.742 213.171Z" fill="white" stroke="#263238" stroke-width="0.633213" stroke-linecap="round" stroke-linejoin="round"/>
<path d="M112.637 217.126L103.257 219.5" stroke="#263238" stroke-width="0.633213" stroke-linecap="round" stroke-linejoin="round"/>
<path d="M109.48 226.323L107.947 228.319" stroke="#263238" stroke-width="0.633213" stroke-linecap="round" stroke-linejoin="round"/>
<path d="M114.591 219.672L110.923 224.442" stroke="#263238" stroke-width="0.633213" stroke-linecap="round" stroke-linejoin="round"/>
<path d="M132.181 218.213C132.181 218.213 128.801 219.386 129.214 221.446C129.626 223.505 132.148 224.585 132.148 224.585C132.148 224.585 140.185 224.17 140.391 223.248C140.597 222.325 139.022 220.881 137.522 220.437C136.199 220.085 134.853 219.798 133.492 219.579L132.181 218.213Z" fill="white" stroke="#263238" stroke-width="0.633213" stroke-linecap="round" stroke-linejoin="round"/>
<path d="M132.148 224.585C132.044 225.168 132.082 225.764 132.261 226.333C132.44 226.903 132.756 227.433 133.187 227.889C134.679 229.57 135.165 230.035 137.605 229.363C140.045 228.69 144.158 226.709 144.108 225.15C144.059 223.591 140.383 223.248 140.383 223.248C140.383 223.248 134.11 224.735 132.148 224.585Z" fill="white" stroke="#263238" stroke-width="0.633213" stroke-linecap="round" stroke-linejoin="round"/>
<path d="M135.643 229.878C135.643 229.878 135.841 232.188 137.596 232.603C139.352 233.017 141.85 231.966 143.02 231.351C144.191 230.736 147.191 228.383 146.581 226.573C145.971 224.764 143.474 226.473 143.474 226.473C143.474 226.473 139.146 229.356 135.643 229.878Z" fill="white" stroke="#263238" stroke-width="0.633213" stroke-linecap="round" stroke-linejoin="round"/>
<path d="M139.682 232.738C139.682 232.738 139.921 234.598 141.157 234.977C142.394 235.356 145.658 233.64 146.779 232.116C147.9 230.593 145.955 229.441 145.955 229.441C145.955 229.441 140.852 232.789 139.682 232.738Z" fill="white" stroke="#263238" stroke-width="0.633213" stroke-linecap="round" stroke-linejoin="round"/>
<path d="M172.933 221.918C172.933 221.918 153.472 210.753 150.999 209.43C148.526 208.107 145.65 209.666 144.743 210.546C142.355 212.355 139.657 213.832 136.747 214.923C134.275 215.638 131.892 216.582 133.615 217.641C135.338 218.699 137.992 219.071 140.935 218.613C143.523 218.105 146.06 217.414 148.518 216.546C148.518 216.546 151.683 224.886 158.541 224.614" fill="white"/>
<path d="M172.933 221.918C172.933 221.918 153.472 210.753 150.999 209.43C148.526 208.107 145.65 209.666 144.743 210.546C142.355 212.355 139.657 213.832 136.747 214.923C134.275 215.638 131.892 216.582 133.615 217.641C135.338 218.699 137.992 219.071 140.935 218.613C143.523 218.105 146.06 217.414 148.518 216.546C148.518 216.546 151.683 224.886 158.541 224.614" stroke="#263238" stroke-width="0.633213" stroke-linecap="round" stroke-linejoin="round"/>
<path d="M211.748 91.6592C211.748 91.6592 209.061 100.242 210.405 102.387C211.748 104.533 213.545 106.864 213.323 109.196C213.1 111.527 208.839 118.343 210.182 119.509C211.526 120.675 216.463 121.84 216.463 121.84C216.463 121.84 224.755 136.044 226.775 136.044C228.794 136.044 234.845 133.126 235.966 132.933C237.087 132.74 238.653 132.733 240.45 135.844C242.247 138.955 244.48 142.281 244.48 143.046C244.48 143.811 237.062 149.662 237.062 149.662C237.062 149.662 219.793 158.244 218.45 161.527C217.106 164.809 211.724 188.754 210.38 192.645C209.037 196.535 203.654 197.901 205.673 200.426C206.86 201.868 207.628 203.536 207.915 205.289C207.915 205.289 202.088 209.58 203.877 212.098C205.665 214.615 209.037 218.714 209.037 218.714C209.037 218.714 206.349 217.934 205.896 220.659C205.443 223.384 202.558 226.631 203.423 226.631C204.289 226.631 211.921 225.916 218.417 228.061C224.912 230.207 223.123 230.786 223.123 230.786L214.221 295.711H319.588L316.448 235.8C316.448 235.8 311.733 171.611 311.288 161.691C310.843 151.771 310.843 151.771 305.914 149.826C300.985 147.881 277.435 141.651 274.525 140.879C272.027 140.253 269.776 139.04 268.022 137.374C266.678 136.016 262.194 126.289 262.194 126.289C262.194 126.289 254.347 96.7228 249.187 87.3824C244.027 78.0419 237.985 75.9035 227.657 79.2149C217.329 82.5262 213.99 87.1893 211.748 91.6592Z" fill="white" stroke="#263238" stroke-width="0.633213" stroke-linecap="round" stroke-linejoin="round"/>
<path d="M223.486 295.712H260.414C260.48 280.285 260.991 203.638 264.214 187.56C267.264 172.326 276.487 148.789 279.166 142.116L274.526 140.879C274.023 140.743 273.553 140.586 273.091 140.421C268.615 147.165 250.011 174.479 243.137 174.143C235.29 173.749 240.137 147.158 240.137 147.158C240.137 147.158 231.482 159.739 227.657 171.804C223.832 183.869 225.184 211.097 225.184 211.097V238.718L223.486 295.712Z" fill="white" stroke="#263238" stroke-width="0.633213" stroke-linecap="round" stroke-linejoin="round"/>
<path d="M221.945 106.814C222.53 107.937 222.456 109.067 221.78 109.332C221.104 109.596 220.082 108.902 219.496 107.772C218.911 106.642 218.977 105.52 219.653 105.255C220.329 104.99 221.359 105.713 221.945 106.814Z" fill="#263238"/>
<path d="M215.565 101.808C215.565 101.808 216.463 99.4692 220.51 100.442" stroke="#263238" stroke-width="1.26643" stroke-linecap="round" stroke-linejoin="round"/>
<path d="M221.392 122.784C222.797 122.903 224.209 122.627 225.42 121.997C226.63 121.368 227.576 120.418 228.118 119.287" stroke="#263238" stroke-width="0.633213" stroke-linecap="round" stroke-linejoin="round"/>
<path d="M223.181 230.743L214.221 295.712H226.107C226.165 285.821 226.643 215.431 227.896 205.847C229.067 196.879 237.862 157.314 240.137 147.158C238.529 148.496 237.087 149.633 237.087 149.633C237.087 149.633 219.818 158.215 218.474 161.498C217.131 164.781 211.748 188.726 210.405 192.616C209.061 196.507 203.679 197.873 205.698 200.398C206.884 201.839 207.653 203.507 207.94 205.261C207.94 205.261 202.113 209.552 203.901 212.07C205.69 214.587 209.061 218.685 209.061 218.685C209.061 218.685 206.374 217.906 205.921 220.631C205.467 223.355 202.582 226.602 203.448 226.602C204.313 226.602 209.597 228.991 216.076 229.463C223.041 229.957 223.181 230.743 223.181 230.743Z" fill="#C6FF00" stroke="#263238" stroke-width="0.633213" stroke-linecap="round" stroke-linejoin="round"/>
<path d="M316.448 235.8C316.448 235.8 311.733 171.611 311.288 161.691C310.843 151.771 310.843 151.771 305.914 149.826C300.985 147.881 277.435 141.651 274.525 140.879C273.957 140.721 273.429 140.55 272.877 140.357C269.102 150.04 255.163 186.487 253.416 200.591C251.602 215.288 253.597 282.345 254.017 295.712H319.556L316.448 235.8Z" fill="#C6FF00" stroke="#263238" stroke-width="0.633213" stroke-linecap="round" stroke-linejoin="round"/>
<path d="M291.11 262.777L266.109 264.221V267.118L298.776 265.094" fill="#C6FF00"/>
<path d="M291.11 262.777L266.109 264.221V267.118L298.776 265.094" stroke="#263238" stroke-width="0.633213" stroke-linecap="round" stroke-linejoin="round"/>
<path d="M223.536 173.635C224.113 171.096 224.508 169.472 224.508 169.472" stroke="#263238" stroke-width="0.633213" stroke-linecap="round" stroke-linejoin="round"/>
<path d="M223.181 230.743C223.181 230.743 223.412 219.3 222.958 216.933C222.505 214.566 218.252 208.572 218.474 201.198C218.623 196.371 221.162 184.327 222.901 176.553" stroke="#263238" stroke-width="0.633213" stroke-linecap="round" stroke-linejoin="round"/>
<path d="M216.117 218.191C214.757 218.191 213.743 218.098 213.743 218.098" stroke="#263238" stroke-width="0.633213" stroke-linecap="round" stroke-linejoin="round"/>
<path d="M218.474 209.545C218.474 209.545 208.385 210.517 210.182 211.49C211.979 212.463 224.533 215.18 222.959 216.933C222.163 217.564 221.141 217.938 220.065 217.991" stroke="#263238" stroke-width="0.633213" stroke-linecap="round" stroke-linejoin="round"/>
<path d="M292.684 240.47C292.684 240.47 288.876 251.362 285.958 260.702C283.04 270.043 272.992 291.821 272.992 291.821L271.203 295.711H290.038C290.038 295.711 302.139 275.686 307.076 269.063C312.014 262.44 316.712 253.329 318.954 248.837L321.196 244.36L322.095 242.029L293.599 238.717L292.684 240.47Z" fill="white" stroke="#263238" stroke-width="0.633213" stroke-linecap="round" stroke-linejoin="round"/>
<path d="M284.614 177.061C284.614 177.061 289.098 205.847 289.56 208.572C290.022 211.297 285.974 215.181 286.873 217.326C287.771 219.472 296.764 225.909 296.509 226.467C296.253 227.024 291.357 228.612 292.025 230.937C292.692 233.261 294.044 236.58 294.044 236.58L292.7 240.47C292.7 240.47 296.962 242.616 305.699 243.774C314.437 244.933 322.737 244.554 323.191 243.581C323.644 242.609 322.292 233.082 322.292 231.523C322.292 229.964 322.292 228.019 324.089 226.274C325.886 224.528 326.776 222.19 325.21 218.878C324.228 216.753 323.55 214.531 323.191 212.263C323.191 212.263 328.573 205.826 327.221 202.343C325.87 198.86 320.05 194.175 320.05 193.01C320.05 191.844 318.031 162.256 316.242 156.241C314.453 150.226 294.489 147.294 294.489 147.294" fill="#C6FF00"/>
<path d="M284.614 177.061C284.614 177.061 289.098 205.847 289.56 208.572C290.022 211.297 285.974 215.181 286.873 217.326C287.771 219.472 296.764 225.909 296.509 226.467C296.253 227.025 291.357 228.612 292.025 230.937C292.692 233.261 294.044 236.58 294.044 236.58L292.7 240.47C292.7 240.47 296.962 242.616 305.699 243.774C314.437 244.933 322.737 244.554 323.191 243.581C323.644 242.609 322.292 233.082 322.292 231.523C322.292 229.964 322.292 228.019 324.089 226.274C325.886 224.528 326.776 222.19 325.21 218.878C324.228 216.753 323.55 214.531 323.191 212.263C323.191 212.263 328.573 205.826 327.221 202.343C325.87 198.86 320.05 194.175 320.05 193.01C320.05 191.844 318.031 162.256 316.242 156.241C314.453 150.226 294.489 147.294 294.489 147.294" stroke="#263238" stroke-width="0.633213" stroke-linecap="round" stroke-linejoin="round"/>
<path d="M323.619 205.847C323.619 205.847 295.371 213.629 301.842 213.822C308.312 214.015 321.122 209.151 321.122 209.151" stroke="#263238" stroke-width="0.633213" stroke-linecap="round" stroke-linejoin="round"/>
<path d="M298.289 221.016C298.289 221.016 321.155 224.907 318.237 225.687C315.319 226.466 302.996 224.521 302.32 224.521" stroke="#263238" stroke-width="0.633213" stroke-linecap="round" stroke-linejoin="round"/>
<path d="M295.594 237.166C295.594 237.166 323.397 239.311 322.053 240.277C320.71 241.242 313.53 239.89 313.53 239.89" stroke="#263238" stroke-width="0.633213" stroke-linecap="round" stroke-linejoin="round"/>
<path d="M242.296 236.365C243.256 237.94 244.321 239.466 245.486 240.935" stroke="#263238" stroke-width="0.633213" stroke-linecap="round" stroke-linejoin="round"/>
<path d="M231.036 215.238C231.036 215.238 235.85 225.422 240.557 233.482" stroke="#263238" stroke-width="0.633213" stroke-linecap="round" stroke-linejoin="round"/>
<path d="M235.735 230.278C235.735 230.278 242.23 246.277 245.849 251.283" stroke="#263238" stroke-width="0.633213" stroke-linecap="round" stroke-linejoin="round"/>
<path d="M215.342 67.5429C215.342 67.5429 208.385 73.572 205.698 81.3534C203.011 89.1347 204.132 93.805 204.132 93.805L216.496 93.9981L218.697 86.7889L219.818 93.7907L225.201 94.37L227.673 90.0788C227.673 90.0788 228.572 92.4103 230.814 99.219C233.056 106.028 236.642 110.698 237.54 121.004C238.016 127.551 237.259 134.122 235.298 140.457C235.298 140.457 241.802 140.851 261.98 138.312C282.158 135.773 290.451 131.696 293.138 131.31C295.373 131.098 297.629 131.098 299.864 131.31C296.31 125.439 293.529 119.24 291.572 112.829C288.885 103.296 286.412 88.3194 285.291 81.9041C284.17 75.4887 278.795 67.314 265.788 60.8915C252.781 54.4691 233.279 56.8078 226.552 60.112C222.453 62.148 218.684 64.6468 215.342 67.5429Z" fill="#263238" stroke="#263238" stroke-width="0.633213" stroke-linecap="round" stroke-linejoin="round"/>
<path d="M240.408 101.879C240.647 102.916 240.862 103.932 241.035 104.905" stroke="#999999" stroke-width="0.633213" stroke-linecap="round" stroke-linejoin="round"/>
<path d="M233.765 81.1816C233.765 81.1816 237.647 90.9441 239.93 99.9055" stroke="#999999" stroke-width="0.633213" stroke-linecap="round" stroke-linejoin="round"/>
<path d="M237.251 74.6304C238.125 74.38 247.143 90.2789 248.305 100.127" stroke="#999999" stroke-width="0.633213" stroke-linecap="round" stroke-linejoin="round"/>
<path d="M255.592 86.7173C256.02 87.8044 256.416 88.9129 256.746 90.0144" stroke="#999999" stroke-width="0.633213" stroke-linecap="round" stroke-linejoin="round"/>
<path d="M247.439 72.3489C250.36 76.3271 252.843 80.5342 254.858 84.9149" stroke="#999999" stroke-width="0.633213" stroke-linecap="round" stroke-linejoin="round"/>
<path d="M256.746 73.1069C256.746 73.1069 264.016 84.7146 264.593 91.2801" stroke="#999999" stroke-width="0.633213" stroke-linecap="round" stroke-linejoin="round"/>
<path d="M267.791 86.9175C267.929 87.5249 268.028 88.1385 268.088 88.7555" stroke="#999999" stroke-width="0.633213" stroke-linecap="round" stroke-linejoin="round"/>
<path d="M260.232 70.5825C260.232 70.5825 265.359 78.7644 267.346 85.2727" stroke="#999999" stroke-width="0.633213" stroke-linecap="round" stroke-linejoin="round"/>
<path d="M269.695 77.4912C271.682 80.5815 272.935 83.9862 273.379 87.504" stroke="#999999" stroke-width="0.633213" stroke-linecap="round" stroke-linejoin="round"/>
<path d="M263.101 69.3164C265.123 71.3127 266.928 73.4676 268.492 75.7532" stroke="#999999" stroke-width="0.633213" stroke-linecap="round" stroke-linejoin="round"/>
<path d="M280.155 87.6611C280.476 89.0915 280.732 90.5863 280.889 92.0381" stroke="#999999" stroke-width="0.633213" stroke-linecap="round" stroke-linejoin="round"/>
<path d="M275.646 74.3657C277.249 77.9252 278.565 81.5767 279.586 85.294" stroke="#999999" stroke-width="0.633213" stroke-linecap="round" stroke-linejoin="round"/>
<path d="M214.856 70.5825C214.856 70.5825 210.487 75.8821 208.748 81.1818" stroke="#999999" stroke-width="0.633213" stroke-linecap="round" stroke-linejoin="round"/>
<path d="M214.065 80.0874C213.575 80.9294 213.159 81.802 212.82 82.6979" stroke="#999999" stroke-width="0.633213" stroke-linecap="round" stroke-linejoin="round"/>
<path d="M220.379 70.8328C220.379 70.8328 217.551 74.4517 215.284 78.042" stroke="#999999" stroke-width="0.633213" stroke-linecap="round" stroke-linejoin="round"/>
<path d="M224.45 73.6077C224.45 73.6077 220.898 80.6095 219.802 83.7063" stroke="#999999" stroke-width="0.633213" stroke-linecap="round" stroke-linejoin="round"/>
<path d="M226.091 82.2759C225.819 82.9911 225.555 83.742 225.324 84.4644" stroke="#999999" stroke-width="0.633213" stroke-linecap="round" stroke-linejoin="round"/>
<path d="M229.396 74.6304C229.396 74.6304 228.127 77.2051 226.866 80.2947" stroke="#999999" stroke-width="0.633213" stroke-linecap="round" stroke-linejoin="round"/>
<path d="M378.071 295.711H7.06409" stroke="#263238" stroke-width="0.633213" stroke-linecap="round" stroke-linejoin="round"/>
</g>
<defs>
<clipPath id="clip0_53687_157">
<rect width="383" height="298" fill="white"/>
</clipPath>
</defs>
</svg>
